<svg width="24" height="36" viewBox="0 0 24 36" fill="none" xmlns="http://www.w3.org/2000/svg">
<path id="Vector" d="M11.7188 0.519531C5.25703 0.519531 0 5.77646 0 12.2383C0 15.3282 1.19219 18.2438 3.35684 20.4483C5.5167 22.6477 8.40166 23.8926 11.4808 23.9542L11.5702 23.9564C12.6474 23.989 13.5455 23.1331 13.5735 22.0548C13.6017 20.9765 12.7502 20.0796 11.6719 20.0515L11.5638 20.0487C7.34141 19.9669 3.90625 16.463 3.90625 12.2383C3.90625 7.93047 7.41094 4.42578 11.7188 4.42578C16.0266 4.42578 19.5312 7.93047 19.5312 12.2383C19.5312 17.6189 18.2516 22.584 15.7274 26.9955C13.841 30.2929 11.9227 32.0346 11.8868 32.0668C11.0822 32.7811 11.0067 34.0122 11.719 34.8195C12.1051 35.257 12.6435 35.4805 13.1844 35.4805C13.6435 35.4805 14.1045 35.3195 14.4759 34.9919C14.5702 34.9085 16.8144 32.907 19.0233 29.0998C21.0371 25.6291 23.4375 19.8864 23.4375 12.2383C23.4375 5.77646 18.1805 0.519531 11.7188 0.519531Z" fill="url(#paint0_linear_7_653)" fill-opacity="0.991703"/>
<defs>
<linearGradient id="paint0_linear_7_653" x1="23.4375" y1="18" x2="0" y2="18" gradientUnits="userSpaceOnUse">
<stop stop-color="#4043AF"/>
<stop offset="1" stop-color="#FF6231"/>
</linearGradient>
</defs>
</svg>
